<svg xmlns="http://www.w3.org/2000/svg" width="20" height="20" viewBox="0 0 20 20">
  <g id="Group_38986" data-name="Group 38986" transform="translate(10035.828 -5287.172)">
    <g id="Group_38985" data-name="Group 38985" transform="translate(-10035.404 5287.596)">
      <rect id="Rectangle_55907" data-name="Rectangle 55907" width="20" height="20" transform="translate(-0.424 -0.424)" fill="none"/>
      <g id="Buy" transform="translate(3.25 2.412)">
        <path id="Buy-2" data-name="Buy" d="M9.59,1.107a1.042,1.042,0,0,0,.959,1.107,1.041,1.041,0,0,0,.958-1.107A1.041,1.041,0,0,0,10.549,0,1.041,1.041,0,0,0,9.59,1.107Zm-7.118,0A1.041,1.041,0,0,0,3.43,2.214a1.041,1.041,0,0,0,.958-1.107A1.041,1.041,0,0,0,3.43,0,1.04,1.04,0,0,0,2.473,1.107ZM3.536,3.372a1.719,1.719,0,0,0-1.6,1.591l-.012.12-.578,7.965-.955.191A.537.537,0,0,0,0,13.8l.006.074a.5.5,0,0,0,.467.455H.491l.064-.007,1.316-.263a.51.51,0,0,0,.38-.414l.011-.081.149-2.048H11.33a1.235,1.235,0,0,0,.968-.487,1.682,1.682,0,0,0,.351-1.15l-.01-.111-.6-4.794a1.738,1.738,0,0,0-1.5-1.6l-.1,0Zm-.664,1.8a.729.729,0,0,1,.59-.7l.073,0h6.9a.692.692,0,0,1,.645.575l.015.086.6,4.794a.427.427,0,0,1-.314.489l-.056.005H2.491Zm4.8,2.541a.515.515,0,0,0-.474.548.528.528,0,0,0,.41.543l.064.005H9.425A.516.516,0,0,0,9.9,8.263a.529.529,0,0,0-.41-.543l-.064,0Z" transform="translate(12.653 14.327) rotate(180)" fill="#ff9f0d"/>
      </g>
    </g>
  </g>
</svg>
