<svg xmlns="http://www.w3.org/2000/svg" width="27" height="27" viewBox="0 0 27 27">
  <g id="Cartimage" transform="translate(0.267)">
    <rect id="Rectangle_55939" data-name="Rectangle 55939" width="27" height="27" rx="5" transform="translate(-0.267)" fill="#f3f3f9"/>
    <g id="Buy" transform="translate(6.733 6)">
      <path id="Buy-2" data-name="Buy" d="M9.59,13.221a1.042,1.042,0,0,1,.959-1.107,1.041,1.041,0,0,1,.958,1.107,1.041,1.041,0,0,1-.958,1.107A1.041,1.041,0,0,1,9.59,13.221Zm-7.118,0a1.041,1.041,0,0,1,.958-1.107,1.041,1.041,0,0,1,.958,1.107,1.041,1.041,0,0,1-.958,1.107A1.04,1.04,0,0,1,2.473,13.221Zm1.064-2.266a1.719,1.719,0,0,1-1.6-1.591l-.012-.12L1.348,1.28.393,1.089A.537.537,0,0,1,0,.529L.007.455A.5.5,0,0,1,.474,0H.491L.555.008,1.871.271a.51.51,0,0,1,.38.414l.011.081.149,2.048H11.33A1.235,1.235,0,0,1,12.3,3.3a1.682,1.682,0,0,1,.351,1.15l-.01.111-.6,4.794a1.738,1.738,0,0,1-1.5,1.6l-.1,0Zm-.664-1.8a.729.729,0,0,0,.59.7l.073,0h6.9a.692.692,0,0,0,.645-.575L11.1,9.2,11.7,4.4a.427.427,0,0,0-.314-.489L11.33,3.91H2.491Zm4.8-2.541A.515.515,0,0,1,7.2,6.064a.528.528,0,0,1,.41-.543l.064-.005H9.425a.516.516,0,0,1,.474.549.529.529,0,0,1-.41.543l-.064,0Z" transform="translate(0)" fill="#ff9f0d"/>
    </g>
  </g>
</svg>
