<svg xmlns="http://www.w3.org/2000/svg" width="37" height="37" viewBox="0 0 37 37">
  <g id="fase" transform="translate(-142 -584)">
    <path id="Path_68598" data-name="Path 68598" d="M18.5,0A18.5,18.5,0,1,1,0,18.5,18.5,18.5,0,0,1,18.5,0Z" transform="translate(142 584)" fill="#fff"/>
    <path id="Path_66795" data-name="Path 66795" d="M30.971,0,28.754,0a3.893,3.893,0,0,0-4.1,4.207v1.94H22.426a.349.349,0,0,0-.349.349v2.81a.349.349,0,0,0,.349.349h2.229v7.091a.348.348,0,0,0,.349.349h2.908a.349.349,0,0,0,.349-.349V9.654h2.606a.348.348,0,0,0,.349-.349V6.495a.349.349,0,0,0-.349-.349H28.259V4.5c0-.79.188-1.191,1.218-1.191H30.97a.348.348,0,0,0,.348-.349V.352A.349.349,0,0,0,30.971,0Z" transform="translate(133.922 594)" fill="#365ee1"/>
  </g>
</svg>
