<svg xmlns="http://www.w3.org/2000/svg" width="89.992" height="80.861" viewBox="0 0 89.992 80.861">
  <g id="Group_16137" data-name="Group 16137" transform="translate(-128 -9.855)">
    <path id="Path_3" data-name="Path 3" d="M332.234,47.9c2.827,4.781,8.906,10.5,8.906,10.5A70.36,70.36,0,0,1,334.1,47.169a29.242,29.242,0,0,1-1.975-6.277,5.852,5.852,0,0,1,3.644-6.81c4.592-1.58,7.267,4.207,8.8,7.365.964,1.989,1.81,4.074,2.658,6.168l.247,1.654.5-1.648a51.778,51.778,0,0,1,2.945-7.5,26.463,26.463,0,0,1,4.317-6.536,10.972,10.972,0,0,1,2.9-2.224,6.274,6.274,0,0,1,3.286-.686,5.889,5.889,0,0,1,5.793,5.831,10.624,10.624,0,0,1-1.74,5.466c-4.427,7.371-11.785,11.878-18.135,17.42-7.351,6.418-15.77,13.948-18.019,23.858a14.416,14.416,0,0,0,.563,8.7,14.852,14.852,0,0,0,2.232,3.76,13.272,13.272,0,0,0,3.36,2.77,13.058,13.058,0,0,0,4.031,1.479,14.522,14.522,0,0,0,4.214.132,19.727,19.727,0,0,0,7.779-2.618,20.813,20.813,0,0,1-7.83,1.775,12.667,12.667,0,0,1-7.389-2.056,12.226,12.226,0,0,1-2.733-2.606,12.9,12.9,0,0,1-1.712-3.354,12.554,12.554,0,0,1-.035-7.366,23.845,23.845,0,0,1,3.367-6.908c3.216-4.75,7.456-8.351,11.813-12.011,4.686-3.935,9.7-7.463,14.4-11.366,3.833-3.183,7.587-7.21,9.432-11.9,3.671-9.91-5.252-17.389-13.845-12.482a12.4,12.4,0,0,0-3.379,2.923,26.635,26.635,0,0,0-4.117,7.369,43.87,43.87,0,0,0-1.748,5.645,37.314,37.314,0,0,0-.954-4.516,25.21,25.21,0,0,0-2.8-6.566,12.422,12.422,0,0,0-2.532-2.95,7.085,7.085,0,0,0-4.073-1.685,7.471,7.471,0,0,0-4.24,1.118,9.477,9.477,0,0,0-1.682,1.244,8.085,8.085,0,0,0-1.364,1.685,8.486,8.486,0,0,0-1.192,4.037,12.871,12.871,0,0,0,.44,3.843A24.656,24.656,0,0,0,332.234,47.9Z" transform="translate(-199.602 -17.799)" fill="#ff9f0d"/>
    <g id="Group_3" data-name="Group 3" transform="translate(128 36.362)">
      <path id="Path_4" data-name="Path 4" d="M327.739,94.685c.264,3.134,7.085,5.609,10.757,5.609h68.477c3.672,0,10.493-2.474,10.758-5.609Z" transform="translate(-327.739 -45.94)" fill="#ff9f0d"/>
      <path id="Path_5" data-name="Path 5" d="M372.157,55.487a2.119,2.119,0,1,0-1.839-2.367A2.118,2.118,0,0,0,372.157,55.487Z" transform="translate(-322.52 -51.265)" fill="#ff9f0d"/>
      <path id="Path_6" data-name="Path 6" d="M376.323,56.393a37.28,37.28,0,0,0-41.535,31.614L408.743,97.3A37.281,37.281,0,0,0,376.323,56.393Zm26.55,25.284a.413.413,0,0,1-.4-.189c-1.163-1.731-2.315-3.418-3.531-5.055-.312-.4-.622-.807-.924-1.215l-.951-1.19c-.631-.794-1.294-1.56-1.965-2.317a53.1,53.1,0,0,0-4.272-4.291,49.231,49.231,0,0,0-4.779-3.748.4.4,0,0,1-.157-.505.3.3,0,0,1,.377-.124,21.888,21.888,0,0,1,5.488,3.046,32.378,32.378,0,0,1,4.747,4.345c.72.8,1.392,1.641,2.048,2.49.628.87,1.244,1.745,1.8,2.655a28.376,28.376,0,0,1,2.73,5.679A.3.3,0,0,1,402.873,81.677Z" transform="translate(-326.875 -50.672)" fill="#ff9f0d"/>
    </g>
  </g>
</svg>
