<svg xmlns="http://www.w3.org/2000/svg" width="37" height="37" viewBox="0 0 37 37">
  <g id="newinst" transform="translate(-204 -575)">
    <circle id="Ellipse_927" data-name="Ellipse 927" cx="18.5" cy="18.5" r="18.5" transform="translate(204 575)" fill="#f3f3f9"/>
    <g id="Group_38378" data-name="Group 38378" transform="translate(38.915 -30.865)">
      <path id="Path_4926" data-name="Path 4926" d="M11.952,0H5.071A5.077,5.077,0,0,0,0,5.071v6.88a5.077,5.077,0,0,0,5.071,5.071h6.881a5.077,5.077,0,0,0,5.071-5.071V5.071A5.077,5.077,0,0,0,11.952,0Zm3.359,11.952a3.359,3.359,0,0,1-3.359,3.359H5.071a3.359,3.359,0,0,1-3.359-3.359V5.071A3.359,3.359,0,0,1,5.071,1.712h6.881a3.359,3.359,0,0,1,3.359,3.359v6.88Z" transform="translate(175.085 615.865)" fill="#fc0e6d"/>
      <path id="Path_4927" data-name="Path 4927" d="M137.4,133a4.4,4.4,0,1,0,4.4,4.4A4.408,4.408,0,0,0,137.4,133Zm0,7.093a2.69,2.69,0,1,1,2.69-2.69A2.69,2.69,0,0,1,137.4,140.093Z" transform="translate(46.194 486.973)" fill="#fc0e6d"/>
      <ellipse id="Ellipse_3" data-name="Ellipse 3" cx="1.055" cy="1.055" rx="1.055" ry="1.055" transform="translate(186.953 618.952)" fill="#fc0e6d"/>
    </g>
  </g>
</svg>
