<svg xmlns="http://www.w3.org/2000/svg" width="37" height="37" viewBox="0 0 37 37">
  <g id="newwhats" transform="translate(-94 -575)">
    <path id="Path_68605" data-name="Path 68605" d="M18.5,0A18.5,18.5,0,1,1,0,18.5,18.5,18.5,0,0,1,18.5,0Z" transform="translate(94 575)" fill="#f3f3f9"/>
    <g id="svgexport-6_76_" data-name="svgexport-6 (76)" transform="translate(102.231 583.233)">
      <path id="Path_68600" data-name="Path 68600" d="M.439,20.61a.439.439,0,0,1-.423-.554l1.34-4.893A10.22,10.22,0,1,1,10.3,20.44h0a10.24,10.24,0,0,1-4.729-1.161L.55,20.6a.441.441,0,0,1-.111.014Zm0,0" transform="translate(0)" fill="#e5e5e5"/>
      <path id="Path_68601" data-name="Path 68601" d="M10.895,30.628l1.388-5.067a9.781,9.781,0,1,1,8.475,4.9h0a9.773,9.773,0,0,1-4.674-1.19ZM16.32,27.5l.3.176a8.118,8.118,0,0,0,4.138,1.133h0A8.129,8.129,0,1,0,13.871,25l.193.308-.821,3Zm0,0" transform="translate(-10.456 -10.457)" fill="#fff"/>
      <path id="Path_68602" data-name="Path 68602" d="M19.344,38.433l1.34-4.892a9.442,9.442,0,1,1,8.182,4.728h0a9.441,9.441,0,0,1-4.512-1.149Zm0,0" transform="translate(-18.565 -18.603)" fill="#64b161"/>
      <g id="Group_38964" data-name="Group 38964" transform="translate(0.439 0.438)">
        <path id="Path_68603" data-name="Path 68603" d="M10.895,30.628l1.388-5.067a9.781,9.781,0,1,1,8.475,4.9h0a9.773,9.773,0,0,1-4.674-1.19ZM16.32,27.5l.3.176a8.118,8.118,0,0,0,4.138,1.133h0A8.129,8.129,0,1,0,13.871,25l.193.308-.821,3Zm0,0" transform="translate(-10.895 -10.895)" fill="#fff"/>
        <path id="Path_68604" data-name="Path 68604" d="M134.971,142.041c-.183-.407-.376-.415-.55-.422-.142-.006-.306-.006-.468-.006a.9.9,0,0,0-.652.306,2.739,2.739,0,0,0-.856,2.038,4.753,4.753,0,0,0,1,2.528,10.032,10.032,0,0,0,4.175,3.689c2.064.814,2.484.652,2.933.612a2.468,2.468,0,0,0,1.649-1.162,2.041,2.041,0,0,0,.143-1.162c-.061-.1-.224-.163-.468-.285s-1.446-.714-1.67-.8-.387-.122-.55.123-.631.795-.774.958-.285.184-.53.061a6.682,6.682,0,0,1-1.965-1.213,7.363,7.363,0,0,1-1.36-1.692c-.142-.244,0-.365.107-.5a7.373,7.373,0,0,0,.611-.836.45.45,0,0,0-.02-.428C135.663,143.733,135.188,142.524,134.971,142.041Zm0,0" transform="translate(-127.553 -136.351)" fill="#fff" fill-rule="evenodd"/>
      </g>
    </g>
  </g>
</svg>
