<svg id="sikale" xmlns="http://www.w3.org/2000/svg" width="10.005" height="8.114" viewBox="0 0 10.005 8.114">
  <g id="Group_22712" data-name="Group 22712">
    <path id="Path_26169" data-name="Path 26169" d="M4.121,8.6H1.144l0,6.4A.571.571,0,1,1,0,15L0,8.028a.571.571,0,0,1,.571-.57H4.121a3.11,3.11,0,0,1,3.106,3.106V13.48a.571.571,0,1,1-1.141,0V10.564A1.968,1.968,0,0,0,4.121,8.6ZM9.435,7.458a.571.571,0,0,0-.571.571l0,6.4H5.885A1.967,1.967,0,0,1,3.92,12.466V9.55a.571.571,0,0,0-1.141,0v2.916a3.11,3.11,0,0,0,3.106,3.106H9.432A.571.571,0,0,0,10,15l0-6.974A.571.571,0,0,0,9.435,7.458Z" transform="translate(0 -7.458)" fill="#ff9f0d"/>
  </g>
</svg>
